<?xml version="1.0" encoding="iso-8859-1"?>
<!-- Generator: Adobe Illustrator 19.0.0, SVG Export Plug-In . SVG Version: 6.00 Build 0)  -->
<svg version="1.1" id="Capa_1" xmlns="http://www.w3.org/2000/svg" xmlns:xlink="http://www.w3.org/1999/xlink" x="0px" y="0px"
	 viewBox="0 0 512 512" style="enable-background:new 0 0 512 512;" xml:space="preserve">
<circle style="fill:#802897;" cx="256" cy="256" r="256"/>
<path style="fill:#451152;" d="M512,256c0-0.961-0.026-1.915-0.036-2.874l-114.836-114.6c-3.209-4.236-7.186-6.315-10.928-7.246
	c-3.9-0.97-8.04-0.18-11.66,2.23c-0.344,0.229-0.698,0.489-1.055,0.765l-31.823-32.12c-5.179-6.866-12.157-7.686-15.132-7.686
	c-2.08,0-4.06,0.37-5.91,1.08c-7.137,2.689-12.465,10.276-14.503,20.562l-49.805-48.988L235.614,61.5l-12.805,47.125l-46.503-46.281
	l-20.172,7.288l22.157,61.323l15.067,14.801c-4.853,2.134-10.311,7.025-12.647,18.034l-18.886-18.854l-56.202-33.057l-10.874,18.487
	l50.54,50.223c-1.354-0.077-2.71,0.043-4.039,0.37c-8.84,2.2-19.01,10.78-17.21,39.16c1.379,21.716,8.807,80.372,12.041,105.357
	l-21.471-21.832c-8.614-9.175-17.81-14.055-26.069-13.795c-5.51,0.17-10.25,2.65-13.72,7.17c-10.63,13.86-8.91,32.03,6.48,48.25
	c12.01,12.66,36.41,36.55,51.3,51.96c4.04,4.19,6.36,10.32,6.36,16.84v69.662C174.038,501.797,213.827,512,256,512
	C397.385,512,512,397.385,512,256z"/>
<path style="fill:#E67500;" d="M446.15,295.58c-12.01,12.67-36.41,36.55-51.3,51.97c-4.04,4.18-6.36,10.32-6.36,16.83v110.71
	c-20.86,12.64-43.67,22.39-67.87,28.68c-11.94,3.11-24.21,5.37-36.76,6.73c-9.15,0.99-18.45,1.5-27.86,1.5
	c-4.16,0-8.3-0.1-12.41-0.29V337.76c-0.25-2.49-3.57-34.36-15.97-82.06c-1.63-6.26-3.41-12.8-5.37-19.58
	c-1.9-6.61-3.97-13.46-6.21-20.5c-10.48-32.92-13.71-48.16-0.66-55.93c1.18-0.7,2.39-1.24,3.61-1.6c2.74-0.82,5.53-0.78,8.24,0.14
	c6.21,2.1,11.51,8.57,15.75,19.21c0.31,0.79,0.64,1.62,0.97,2.49c6.19,16.06,15.53,44.82,19.4,56.9c0.21,0.64,0.57,0.85,0.64,0.83
	c0.34-0.1,0.86-0.94,0.69-2c-0.39-2.51-0.92-5.9-1.56-9.89c-2.19-13.85-5.73-36.18-8.12-53.73c-0.24-1.73-0.46-3.4-0.67-5.02
	c-2.66-20.5-5.17-39.87,11.39-44.27c4.5-1.19,8.61-0.59,12.22,1.79c7.03,4.62,11.59,15.47,14.36,34.14
	c1.24,8.38,4.84,31.12,7.84,49.26c1.47,8.88,2.8,16.66,3.64,21.12c0.15,0.78,0.57,1.12,0.69,1.12c0.14,0,0.73-0.54,0.73-1.6V125.7
	c0-15.06,6.21-26.68,15.42-30.15c1.85-0.71,3.83-1.08,5.91-1.08c5.01,0,21.38,2.3,21.38,31.93v101.65c0,1.16,0.64,1.79,0.9,1.8
	c0.22,0,0.7-0.44,0.86-1.29c2.05-11.34,8.98-49.82,11.92-68.96c2.48-16.09,8.41-23.07,12.95-26.09c3.62-2.41,7.76-3.2,11.66-2.23
	c8.84,2.2,19.01,10.78,17.21,39.15c-1.4,22.06-9.04,82.21-12.19,106.51c6.32-6.47,15.14-15.6,19.72-20.88
	c9.15-10.52,19.1-16.18,27.97-15.9c5.51,0.17,10.25,2.65,13.72,7.18C463.26,261.2,461.54,279.37,446.15,295.58z"/>
<path style="fill:#C06200;" d="M446.15,295.58c-12.01,12.67-36.41,36.55-51.3,51.97c-4.04,4.18-6.36,10.32-6.36,16.83v110.71
	c-20.86,12.64-43.67,22.39-67.87,28.68V95.55c1.85-0.71,3.83-1.08,5.91-1.08c5.01,0,21.38,2.3,21.38,31.93v101.65
	c0,1.16,0.64,1.79,0.9,1.8c0.22,0,0.7-0.44,0.86-1.29c2.05-11.34,8.98-49.82,11.92-68.96c2.48-16.09,8.41-23.07,12.95-26.09
	c3.62-2.41,7.76-3.2,11.66-2.23c8.84,2.2,19.01,10.78,17.21,39.15c-1.4,22.06-9.04,82.21-12.19,106.51
	c6.32-6.47,15.14-15.6,19.72-20.88c9.15-10.52,19.1-16.18,27.97-15.9c5.51,0.17,10.25,2.65,13.72,7.18
	C463.26,261.2,461.54,279.37,446.15,295.58z"/>
<path style="fill:#FFDCA8;" d="M311.41,265.3c-22.04,69.26-27.24,119.01-27.55,122.14V510.5c-9.15,0.99-18.45,1.5-27.86,1.5
	c-4.16,0-8.3-0.1-12.41-0.29c-12.51-0.6-24.79-2.1-36.76-4.43c-23.99-4.67-46.78-12.68-67.87-23.54v-69.67
	c0-6.52-2.32-12.65-6.36-16.84c-14.89-15.41-39.29-39.3-51.3-51.96c-15.39-16.22-17.11-34.39-6.48-48.25
	c3.47-4.52,8.21-7,13.72-7.17c8.87-0.28,18.82,5.37,27.97,15.9c4.58,5.27,13.4,14.41,19.72,20.88
	c-3.15-24.3-10.79-84.46-12.19-106.51c-1.8-28.38,8.37-36.96,17.21-39.16c3.9-0.96,8.04-0.18,11.66,2.23
	c4.54,3.02,10.47,10.01,12.95,26.1c2.94,19.13,9.87,57.61,11.92,68.95c0.16,0.85,0.64,1.29,0.86,1.29c0.26,0,0.9-0.64,0.9-1.8
	V176.09c0-29.64,16.37-31.94,21.38-31.94c7.89,0,14.4,5.36,18.07,13.94c2.09,4.86,3.26,10.75,3.26,17.29v102.88
	c0,1.07,0.59,1.6,0.73,1.6c0.12,0,0.54-0.34,0.69-1.12c0.89-4.77,2.36-13.36,3.95-23.04c2.94-17.79,6.33-39.25,7.53-47.33
	c1.96-13.21,4.81-22.5,8.8-28.44c1.66-2.47,3.5-4.36,5.56-5.71c1.72-1.14,3.55-1.87,5.49-2.18c2.12-0.36,4.37-0.23,6.73,0.4
	c16.56,4.4,14.05,23.76,11.39,44.27c-2.35,18.09-6.38,43.54-8.79,58.74c-0.64,3.99-1.17,7.38-1.56,9.89c-0.17,1.07,0.35,1.9,0.69,2
	c0.07,0.02,0.43-0.18,0.64-0.82c4.08-12.73,14.23-44.01,20.37-59.4c4.22-10.59,9.49-17.04,15.67-19.18
	c0.03-0.01,0.05-0.02,0.08-0.03c1.64-0.56,3.31-0.79,4.98-0.7c2.32,0.11,4.64,0.83,6.87,2.16
	C325.12,217.14,321.89,232.38,311.41,265.3z"/>
<path style="fill:#FFC56E;" d="M320.62,225.79c0,9.08-3.54,21.71-9.21,39.51c-22.04,69.26-27.24,119.01-27.55,122.14V510.5
	c-9.15,0.99-18.45,1.5-27.86,1.5c-16.82,0-33.26-1.62-49.17-4.72V145.22c9.21,3.48,15.42,15.1,15.42,30.16v102.88
	c0,1.07,0.59,1.6,0.73,1.6c0.11,0,0.54-0.33,0.69-1.11c2.56-13.55,9.63-57.91,11.48-70.38c2.77-18.68,7.34-29.53,14.36-34.15
	c3.61-2.38,7.72-2.98,12.22-1.78c16.56,4.4,14.05,23.77,11.39,44.27c-2.35,18.09-6.38,43.54-8.79,58.74
	c-0.63,3.99-1.17,7.38-1.56,9.89c-0.17,1.06,0.35,1.9,0.69,2c0.07,0.02,0.43-0.18,0.64-0.82c4.08-12.73,14.23-44.01,20.37-59.4
	c4.24-10.64,9.54-17.1,15.75-19.21c3.92-1.33,8.01-0.82,11.85,1.46C318.06,212.94,320.62,218.08,320.62,225.79z"/>
<rect x="166.571" y="64.055" transform="matrix(-0.9405 0.3398 -0.3398 -0.9405 376.8832 127.3139)" style="fill:#FFF5CB;" width="21.448" height="65.2"/>
<rect x="226.69" y="63.166" transform="matrix(-0.965 -0.2622 0.2622 -0.965 441.4106 250.4321)" style="fill:#FFED97;" width="21.448" height="65.199"/>
<rect x="117.57" y="105.046" transform="matrix(-0.507 0.862 -0.862 -0.507 311.9833 96.8474)" style="fill:#FFF5CB;" width="21.449" height="65.203"/>
<g>
</g>
<g>
</g>
<g>
</g>
<g>
</g>
<g>
</g>
<g>
</g>
<g>
</g>
<g>
</g>
<g>
</g>
<g>
</g>
<g>
</g>
<g>
</g>
<g>
</g>
<g>
</g>
<g>
</g>
</svg>
